<svg xmlns="http://www.w3.org/2000/svg" xmlns:xlink="http://www.w3.org/1999/xlink" width="500" zoomAndPan="magnify" viewBox="0 0 375 374.999991" height="500" preserveAspectRatio="xMidYMid meet" version="1.0"><defs><g/><clipPath id="59df4a1614"><path d="M 3 86.609375 L 199 86.609375 L 199 161 L 3 161 Z M 3 86.609375 " clip-rule="nonzero"/></clipPath><clipPath id="af6cb2e964"><path d="M 0.316406 164 L 202 164 L 202 179 L 0.316406 179 Z M 0.316406 164 " clip-rule="nonzero"/></clipPath><clipPath id="a66bb4f713"><path d="M 49 274 L 153 274 L 153 288.359375 L 49 288.359375 Z M 49 274 " clip-rule="nonzero"/></clipPath><clipPath id="88bda94374"><path d="M 0.316406 182 L 202 182 L 202 198 L 0.316406 198 Z M 0.316406 182 " clip-rule="nonzero"/></clipPath><clipPath id="99a3fecc16"><path d="M 49 274 L 370.5 274 L 370.5 288.359375 L 49 288.359375 Z M 49 274 " clip-rule="nonzero"/></clipPath><clipPath id="892a4eb1bf"><path d="M 27 256 L 370.5 256 L 370.5 271 L 27 271 Z M 27 256 " clip-rule="nonzero"/></clipPath><clipPath id="ad23efdb6f"><path d="M 13 237 L 370.5 237 L 370.5 253 L 13 253 Z M 13 237 " clip-rule="nonzero"/></clipPath><clipPath id="22aedcf7a0"><path d="M 5 219 L 370.5 219 L 370.5 235 L 5 235 Z M 5 219 " clip-rule="nonzero"/></clipPath><clipPath id="d865d41aff"><path d="M 1 201 L 370.5 201 L 370.5 216 L 1 216 Z M 1 201 " clip-rule="nonzero"/></clipPath><clipPath id="53bd1e6ffe"><path d="M 0.316406 182 L 370.5 182 L 370.5 198 L 0.316406 198 Z M 0.316406 182 " clip-rule="nonzero"/></clipPath><clipPath id="cb6c85d264"><path d="M 0.316406 164 L 370.5 164 L 370.5 179 L 0.316406 179 Z M 0.316406 164 " clip-rule="nonzero"/></clipPath></defs><g clip-path="url(#59df4a1614)"><path fill="#e76f51" d="M 3.941406 160.613281 L 198.285156 160.613281 C 186.550781 117.941406 147.496094 86.609375 101.136719 86.609375 C 54.777344 86.609375 15.722656 117.941406 3.941406 160.613281 Z M 3.941406 160.613281 " fill-opacity="1" fill-rule="nonzero"/></g><g clip-path="url(#af6cb2e964)"><path fill="#74e900" d="M 0.671875 178.992188 L 201.554688 178.992188 C 201.152344 174.105469 200.390625 169.308594 199.316406 164.648438 L 2.910156 164.648438 C 1.835938 169.308594 1.121094 174.105469 0.671875 178.992188 Z M 0.671875 178.992188 " fill-opacity="1" fill-rule="nonzero"/></g><g clip-path="url(#a66bb4f713)"><path fill="#74e900" d="M 152.960938 274.015625 L 49.3125 274.015625 C 64.453125 283.117188 82.191406 288.359375 101.136719 288.359375 C 120.082031 288.359375 137.820312 283.117188 152.960938 274.015625 Z M 152.960938 274.015625 " fill-opacity="1" fill-rule="nonzero"/></g><path fill="#74e900" d="M 27.234375 256.085938 C 32.203125 261.464844 37.714844 266.261719 43.761719 270.429688 L 158.511719 270.429688 C 164.515625 266.261719 170.070312 261.464844 175.039062 256.085938 Z M 27.234375 256.085938 " fill-opacity="1" fill-rule="nonzero"/><path fill="#74e900" d="M 13.839844 237.933594 C 16.75 243 20.15625 247.792969 23.875 252.277344 L 178.398438 252.277344 C 182.164062 247.792969 185.523438 243 188.433594 237.933594 Z M 13.839844 237.933594 " fill-opacity="1" fill-rule="nonzero"/><path fill="#74e900" d="M 5.597656 219.78125 C 7.300781 224.753906 9.316406 229.550781 11.734375 234.125 L 190.539062 234.125 C 192.957031 229.550781 194.972656 224.753906 196.675781 219.78125 Z M 5.597656 219.78125 " fill-opacity="1" fill-rule="nonzero"/><path fill="#74e900" d="M 1.300781 201.402344 C 1.972656 206.289062 3 211.085938 4.34375 215.746094 L 197.929688 215.746094 C 199.273438 211.085938 200.300781 206.289062 200.972656 201.402344 Z M 1.300781 201.402344 " fill-opacity="1" fill-rule="nonzero"/><g clip-path="url(#88bda94374)"><path fill="#74e900" d="M 0.359375 187.460938 C 0.359375 190.78125 0.539062 194.097656 0.851562 197.324219 L 201.46875 197.324219 C 201.78125 194.050781 201.960938 190.78125 201.960938 187.460938 C 201.960938 185.984375 201.914062 184.460938 201.871094 182.980469 L 0.492188 182.980469 C 0.359375 184.503906 0.359375 185.984375 0.359375 187.460938 Z M 0.359375 187.460938 " fill-opacity="1" fill-rule="nonzero"/></g><g clip-path="url(#99a3fecc16)"><path fill="#264653" d="M 49.3125 274.015625 C 64.453125 283.117188 82.191406 288.359375 101.136719 288.359375 L 363.609375 288.359375 C 367.550781 288.359375 370.773438 285.132812 370.773438 281.1875 C 370.773438 279.214844 369.96875 277.421875 368.667969 276.125 C 367.371094 274.824219 365.578125 274.015625 363.609375 274.015625 Z M 49.3125 274.015625 " fill-opacity="1" fill-rule="nonzero"/></g><g clip-path="url(#892a4eb1bf)"><path fill="#2a9d8f" d="M 27.234375 256.085938 C 32.203125 261.464844 37.714844 266.261719 43.761719 270.429688 L 363.609375 270.429688 C 367.550781 270.429688 370.773438 267.203125 370.773438 263.257812 C 370.773438 261.285156 369.96875 259.492188 368.667969 258.195312 C 367.371094 256.894531 365.578125 256.085938 363.609375 256.085938 Z M 27.234375 256.085938 " fill-opacity="1" fill-rule="nonzero"/></g><g clip-path="url(#ad23efdb6f)"><path fill="#8ab17d" d="M 13.839844 237.933594 C 16.75 243 20.15625 247.792969 23.875 252.277344 L 363.609375 252.277344 C 367.550781 252.277344 370.773438 249.050781 370.773438 245.105469 C 370.773438 243.132812 369.96875 241.339844 368.667969 240.039062 C 367.371094 238.742188 365.578125 237.933594 363.609375 237.933594 Z M 13.839844 237.933594 " fill-opacity="1" fill-rule="nonzero"/></g><g clip-path="url(#22aedcf7a0)"><path fill="#e9c46a" d="M 5.597656 219.78125 C 7.300781 224.753906 9.316406 229.550781 11.734375 234.125 L 363.609375 234.125 C 367.550781 234.125 370.773438 230.894531 370.773438 226.953125 C 370.773438 224.980469 369.96875 223.1875 368.667969 221.886719 C 367.371094 220.585938 365.578125 219.78125 363.609375 219.78125 Z M 5.597656 219.78125 " fill-opacity="1" fill-rule="nonzero"/></g><g clip-path="url(#d865d41aff)"><path fill="#efb366" d="M 1.300781 201.402344 C 1.972656 206.289062 3 211.085938 4.34375 215.746094 L 363.5625 215.746094 C 367.503906 215.746094 370.730469 212.519531 370.730469 208.574219 C 370.730469 206.601562 369.921875 204.808594 368.625 203.507812 C 367.324219 202.210938 365.535156 201.402344 363.5625 201.402344 Z M 1.300781 201.402344 " fill-opacity="1" fill-rule="nonzero"/></g><g clip-path="url(#53bd1e6ffe)"><path fill="#f4a261" d="M 0.359375 187.460938 C 0.359375 190.78125 0.539062 194.097656 0.851562 197.324219 L 363.609375 197.324219 C 367.550781 197.324219 370.773438 194.097656 370.773438 190.152344 C 370.773438 188.179688 369.96875 186.386719 368.667969 185.085938 C 367.371094 183.789062 365.578125 182.980469 363.609375 182.980469 L 0.449219 182.980469 C 0.359375 184.503906 0.359375 185.984375 0.359375 187.460938 Z M 0.359375 187.460938 " fill-opacity="1" fill-rule="nonzero"/></g><g clip-path="url(#cb6c85d264)"><path fill="#ee8959" d="M 0.671875 178.992188 L 363.609375 178.992188 C 367.550781 178.992188 370.773438 175.765625 370.773438 171.820312 C 370.773438 169.847656 369.96875 168.054688 368.667969 166.753906 C 367.371094 165.453125 365.578125 164.648438 363.609375 164.648438 L 2.957031 164.648438 C 1.835938 169.308594 1.121094 174.105469 0.671875 178.992188 Z M 0.671875 178.992188 " fill-opacity="1" fill-rule="nonzero"/></g><g fill="#3c0fcb" fill-opacity="1"><g transform="translate(60.168802, 225.31248)"><g><path d="M 21.914062 -25.722656 C 22.179688 -25.457031 22.441406 -25.285156 22.703125 -25.285156 C 22.878906 -25.285156 23.097656 -25.414062 23.273438 -25.589844 L 24.585938 -26.859375 C 24.800781 -27.078125 24.933594 -27.296875 24.933594 -27.558594 C 24.933594 -27.910156 24.453125 -28.390625 24.101562 -28.785156 C 21.609375 -31.1875 17.671875 -32.9375 14.171875 -32.9375 C 7.347656 -32.9375 2.929688 -29.222656 2.929688 -23.882812 C 2.929688 -19.464844 6.519531 -17.105469 13.691406 -15.265625 C 18.242188 -14.085938 22.527344 -13.035156 22.527344 -9.449219 C 22.527344 -5.207031 17.804688 -3.238281 14.171875 -3.238281 C 12.074219 -3.238281 8.003906 -4.636719 5.425781 -7.304688 C 5.292969 -7.4375 4.855469 -7.960938 4.460938 -7.960938 C 4.285156 -7.960938 3.980469 -7.875 3.804688 -7.742188 L 2.40625 -6.5625 C 2.144531 -6.34375 2.011719 -6.125 2.011719 -5.863281 C 2.011719 -5.644531 2.144531 -5.378906 2.363281 -5.074219 C 5.160156 -1.445312 9.535156 0.4375 14.042969 0.4375 C 20.867188 0.4375 26.289062 -3.457031 26.289062 -9.710938 C 26.289062 -15.835938 19.945312 -17.367188 14.742188 -18.808594 C 10.980469 -19.816406 6.957031 -21.039062 6.957031 -24.015625 C 6.957031 -26.550781 9.054688 -29.265625 13.996094 -29.265625 C 17.671875 -29.265625 20.515625 -26.988281 21.914062 -25.722656 Z M 21.914062 -25.722656 "/></g></g></g><g fill="#3c0fcb" fill-opacity="1"><g transform="translate(88.206225, 225.31248)"><g><path d="M 7.175781 -20.429688 C 7.128906 -20.996094 6.78125 -21.390625 6.167969 -21.390625 L 4.503906 -21.390625 C 3.9375 -21.390625 3.542969 -21.039062 3.542969 -20.429688 L 3.542969 -0.960938 C 3.542969 -0.351562 3.894531 0 4.550781 0 L 6.34375 0 C 6.957031 0 7.304688 -0.304688 7.304688 -0.960938 L 7.304688 -12.90625 C 7.304688 -15.792969 9.886719 -18.109375 12.730469 -18.109375 C 15.921875 -18.109375 17.367188 -15.792969 17.367188 -12.859375 L 17.367188 -1.050781 C 17.367188 -0.351562 17.585938 0 18.328125 0 L 20.078125 0 C 20.734375 0 21.128906 -0.394531 21.128906 -1.09375 L 21.128906 -12.816406 C 21.128906 -15.835938 23.929688 -18.109375 26.550781 -18.109375 C 29.832031 -18.109375 31.144531 -15.792969 31.144531 -12.859375 L 31.144531 -1.050781 C 31.144531 -0.351562 31.496094 0 32.28125 0 L 33.859375 0 C 34.46875 0 34.953125 -0.394531 34.953125 -1.09375 L 34.953125 -12.816406 C 34.953125 -17.671875 32.109375 -21.871094 27.121094 -21.871094 C 23.882812 -21.871094 21.347656 -19.902344 19.992188 -17.324219 C 18.765625 -19.726562 16.839844 -21.785156 13.429688 -21.785156 C 10.71875 -21.785156 8.484375 -20.164062 7.304688 -18.503906 Z M 7.175781 -20.429688 "/></g></g></g><g fill="#3c0fcb" fill-opacity="1"><g transform="translate(126.391351, 225.31248)"><g><path d="M 18.808594 -1.09375 C 18.808594 -0.4375 19.117188 0 19.902344 0 L 21.304688 0 C 21.914062 0 22.441406 -0.394531 22.441406 -0.960938 L 22.441406 -20.382812 C 22.441406 -21.085938 21.914062 -21.476562 21.304688 -21.476562 L 20.035156 -21.476562 C 19.289062 -21.476562 19.027344 -21.085938 18.984375 -20.382812 L 18.808594 -18.199219 C 17.496094 -20.078125 15.792969 -21.828125 12.203125 -21.828125 C 6.035156 -21.828125 1.75 -16.886719 1.75 -10.671875 C 1.75 -4.460938 6.082031 0.4375 12.203125 0.4375 C 15.746094 0.4375 17.496094 -1.179688 18.808594 -3.148438 Z M 5.378906 -10.671875 C 5.378906 -14.742188 8.003906 -18.152344 12.203125 -18.152344 C 16.492188 -18.152344 18.808594 -14.699219 18.808594 -10.585938 C 18.808594 -6.386719 16.402344 -3.191406 12.203125 -3.191406 C 8.09375 -3.191406 5.378906 -6.5625 5.378906 -10.671875 Z M 5.378906 -10.671875 "/></g></g></g><g fill="#3c0fcb" fill-opacity="1"><g transform="translate(152.372985, 225.31248)"><g><path d="M 7.085938 -20.515625 C 7 -21.039062 6.691406 -21.476562 6.082031 -21.476562 L 4.503906 -21.476562 C 3.980469 -21.476562 3.542969 -21.085938 3.542969 -20.515625 L 3.542969 -0.960938 C 3.542969 -0.304688 3.894531 0 4.550781 0 L 6.34375 0 C 6.957031 0 7.304688 -0.304688 7.304688 -0.960938 L 7.304688 -12.335938 C 7.304688 -15.003906 9.097656 -18.066406 11.722656 -18.066406 C 12.511719 -18.023438 13.515625 -17.714844 14.085938 -17.367188 C 14.171875 -17.324219 14.347656 -17.148438 14.609375 -17.148438 C 14.785156 -17.148438 15.003906 -17.277344 15.179688 -17.585938 L 16.273438 -19.640625 C 16.316406 -19.773438 16.359375 -19.859375 16.359375 -19.992188 C 16.359375 -20.515625 14.171875 -21.828125 12.25 -21.828125 C 9.535156 -21.828125 8.050781 -20.253906 7.304688 -18.898438 Z M 7.085938 -20.515625 "/></g></g></g><g fill="#3c0fcb" fill-opacity="1"><g transform="translate(169.037971, 225.31248)"><g><path d="M 10.980469 0.351562 C 11.679688 0.304688 12.074219 -0.0429688 12.074219 -0.699219 L 12.074219 -2.101562 C 12.074219 -2.800781 11.636719 -3.191406 10.980469 -3.191406 C 9.230469 -3.238281 8.660156 -3.28125 8.660156 -6.253906 L 8.660156 -17.980469 L 11.898438 -17.980469 C 12.554688 -17.980469 12.859375 -18.328125 12.859375 -19.027344 L 12.859375 -20.472656 C 12.859375 -21.214844 12.554688 -21.476562 11.898438 -21.476562 L 8.660156 -21.476562 L 8.660156 -27.691406 C 8.660156 -28.257812 8.53125 -28.828125 7.832031 -28.828125 L 5.597656 -28.519531 C 5.074219 -28.390625 4.855469 -28.171875 4.855469 -27.644531 L 4.855469 -21.476562 L 2.230469 -21.476562 C 1.53125 -21.476562 1.136719 -21.304688 1.136719 -20.558594 L 1.136719 -18.941406 C 1.136719 -18.199219 1.53125 -17.980469 2.230469 -17.980469 L 4.855469 -17.980469 L 4.855469 -4.855469 C 4.855469 -0.175781 7.480469 0.394531 10.28125 0.394531 C 10.542969 0.394531 10.761719 0.351562 10.980469 0.351562 Z M 10.980469 0.351562 "/></g></g></g><g fill="#3c0fcb" fill-opacity="1"><g transform="translate(183.384727, 225.31248)"><g/></g></g><g fill="#3c0fcb" fill-opacity="1"><g transform="translate(197.075379, 225.31248)"><g><path d="M 7.304688 -3.71875 L 7.304688 -31.496094 C 7.304688 -32.109375 6.910156 -32.457031 6.34375 -32.457031 L 4.550781 -32.457031 C 3.894531 -32.457031 3.542969 -32.019531 3.542969 -31.496094 L 3.542969 -0.960938 C 3.542969 -0.304688 3.847656 0 4.503906 0 L 23.097656 0 C 23.664062 0 24.058594 -0.4375 24.058594 -0.960938 L 24.058594 -2.710938 C 24.058594 -3.367188 23.621094 -3.71875 23.097656 -3.71875 Z M 7.304688 -3.71875 "/></g></g></g><g fill="#3c0fcb" fill-opacity="1"><g transform="translate(222.182212, 225.31248)"><g><path d="M 7.304688 -20.515625 C 7.304688 -21.085938 6.910156 -21.476562 6.34375 -21.476562 L 4.503906 -21.476562 C 3.894531 -21.476562 3.542969 -21.128906 3.542969 -20.515625 L 3.542969 -0.960938 C 3.542969 -0.304688 3.847656 0 4.503906 0 L 6.34375 0 C 6.957031 0 7.304688 -0.304688 7.304688 -0.960938 Z M 2.667969 -27.515625 C 2.667969 -26.027344 3.894531 -24.800781 5.425781 -24.800781 C 7 -24.800781 8.179688 -26.027344 8.179688 -27.515625 C 8.179688 -29.046875 7 -30.269531 5.425781 -30.269531 C 3.894531 -30.269531 2.667969 -29.046875 2.667969 -27.515625 Z M 2.667969 -27.515625 "/></g></g></g><g fill="#3c0fcb" fill-opacity="1"><g transform="translate(233.029766, 225.31248)"><g><path d="M 18.460938 -0.613281 C 18.460938 3.105469 14.917969 5.335938 11.679688 5.335938 C 10.324219 5.335938 8.792969 4.8125 7.699219 4.066406 C 7.566406 3.980469 7.347656 3.894531 7.21875 3.894531 C 6.867188 3.894531 6.738281 3.980469 6.605469 4.15625 L 5.378906 6.253906 C 5.335938 6.300781 5.160156 6.605469 5.160156 6.738281 C 5.160156 7 5.292969 7.085938 5.6875 7.304688 C 7.394531 8.398438 9.273438 8.96875 11.722656 8.96875 C 17.714844 8.96875 22.308594 5.335938 22.308594 -2.054688 L 22.308594 -20.296875 C 22.308594 -20.996094 21.695312 -21.390625 21.039062 -21.390625 L 19.640625 -21.390625 C 18.765625 -21.390625 18.460938 -20.953125 18.460938 -20.296875 L 18.460938 -18.503906 C 17.148438 -20.339844 14.871094 -21.871094 11.941406 -21.871094 C 6.253906 -21.871094 1.75 -16.886719 1.75 -10.671875 C 1.75 -4.503906 5.992188 0.480469 11.941406 0.480469 C 14.609375 0.480469 17.105469 -1.445312 18.460938 -3.238281 Z M 5.46875 -10.671875 C 5.46875 -14.742188 8.398438 -18.152344 11.941406 -18.152344 C 15.527344 -18.152344 18.460938 -14.609375 18.460938 -10.542969 C 18.460938 -6.472656 15.355469 -3.191406 11.941406 -3.191406 C 8.398438 -3.191406 5.46875 -6.519531 5.46875 -10.671875 Z M 5.46875 -10.671875 "/></g></g></g><g fill="#3c0fcb" fill-opacity="1"><g transform="translate(259.098876, 225.31248)"><g><path d="M 7.304688 -31.496094 C 7.304688 -32.0625 6.867188 -32.457031 6.300781 -32.457031 L 4.503906 -32.457031 C 3.894531 -32.457031 3.542969 -32.0625 3.542969 -31.496094 L 3.542969 -0.960938 C 3.542969 -0.351562 3.894531 0 4.550781 0 L 6.34375 0 C 6.957031 0 7.304688 -0.304688 7.304688 -0.960938 L 7.304688 -12.949219 C 7.523438 -15.835938 11.109375 -18.109375 13.910156 -18.109375 C 17.628906 -18.109375 19.074219 -15.660156 19.074219 -12.730469 L 19.074219 -1.050781 C 19.074219 -0.351562 19.246094 0 20.035156 0 L 21.828125 0 C 22.398438 0 22.878906 -0.394531 22.878906 -1.09375 L 22.878906 -12.730469 C 22.878906 -17.804688 19.683594 -21.871094 14.652344 -21.871094 C 12.03125 -21.871094 8.660156 -20.121094 7.304688 -18.460938 Z M 7.304688 -31.496094 "/></g></g></g><g fill="#3c0fcb" fill-opacity="1"><g transform="translate(284.949289, 225.31248)"><g><path d="M 10.980469 0.351562 C 11.679688 0.304688 12.074219 -0.0429688 12.074219 -0.699219 L 12.074219 -2.101562 C 12.074219 -2.800781 11.636719 -3.191406 10.980469 -3.191406 C 9.230469 -3.238281 8.660156 -3.28125 8.660156 -6.253906 L 8.660156 -17.980469 L 11.898438 -17.980469 C 12.554688 -17.980469 12.859375 -18.328125 12.859375 -19.027344 L 12.859375 -20.472656 C 12.859375 -21.214844 12.554688 -21.476562 11.898438 -21.476562 L 8.660156 -21.476562 L 8.660156 -27.691406 C 8.660156 -28.257812 8.53125 -28.828125 7.832031 -28.828125 L 5.597656 -28.519531 C 5.074219 -28.390625 4.855469 -28.171875 4.855469 -27.644531 L 4.855469 -21.476562 L 2.230469 -21.476562 C 1.53125 -21.476562 1.136719 -21.304688 1.136719 -20.558594 L 1.136719 -18.941406 C 1.136719 -18.199219 1.53125 -17.980469 2.230469 -17.980469 L 4.855469 -17.980469 L 4.855469 -4.855469 C 4.855469 -0.175781 7.480469 0.394531 10.28125 0.394531 C 10.542969 0.394531 10.761719 0.351562 10.980469 0.351562 Z M 10.980469 0.351562 "/></g></g></g><g fill="#3c0fcb" fill-opacity="1"><g transform="translate(299.296045, 225.31248)"><g><path d="M 1.707031 -4.375 C 2.582031 -1.226562 5.992188 0.394531 9.140625 0.394531 C 13.648438 0.394531 16.929688 -2.011719 16.929688 -5.90625 C 16.929688 -9.40625 14.085938 -11.679688 9.449219 -12.859375 C 7.785156 -13.296875 5.863281 -14.042969 5.863281 -15.835938 C 5.863281 -17.234375 7.304688 -18.589844 9.40625 -18.589844 C 10.980469 -18.589844 12.117188 -17.585938 12.949219 -16.449219 C 13.253906 -16.054688 13.515625 -15.617188 13.824219 -15.617188 C 13.910156 -15.617188 14.042969 -15.660156 14.128906 -15.746094 L 15.921875 -17.015625 C 16.230469 -17.234375 16.097656 -17.542969 15.964844 -17.761719 C 14.480469 -20.382812 12.597656 -22.003906 9.359375 -22.003906 C 5.207031 -22.003906 2.363281 -19.421875 2.363281 -15.835938 C 2.363281 -12.46875 4.898438 -10.324219 8.75 -9.316406 C 11.15625 -8.660156 13.253906 -7.832031 13.253906 -5.90625 C 13.253906 -4.15625 11.109375 -3.0625 9.140625 -3.0625 C 8.003906 -3.0625 5.773438 -3.675781 5.117188 -5.46875 C 5.03125 -5.816406 4.722656 -6.167969 4.375 -6.167969 C 4.285156 -6.167969 4.199219 -6.167969 4.113281 -6.125 L 1.925781 -5.25 C 1.574219 -5.117188 1.574219 -4.636719 1.707031 -4.375 Z M 1.707031 -4.375 "/></g></g></g></svg>